<svg width="67" height="22" viewBox="0 0 67 22" fill="none" xmlns="http://www.w3.org/2000/svg">
<path d="M8.83057 10.3308L8.91001 10.314H15.5173L18 12.7967H11.2966L8.83057 10.3308Z" fill="#AEAEAE" style="fill:#AEAEAE;fill:color(display-p3 0.6818 0.6818 0.6818);fill-opacity:1;"/>
<path d="M6.70348 10.314L0 10.314L2.48275 12.7968H6.7034L6.70348 10.314Z" fill="#AEAEAE" style="fill:#AEAEAE;fill:color(display-p3 0.6818 0.6818 0.6818);fill-opacity:1;"/>
<path d="M8.91017 10.3138L8.83069 10.3306L11.2966 12.7966V19.5H9.18625L6.70349 17.0172H8.81385V10.3138H6.70349V8.20348H8.81385V1.5L11.2966 3.98276V8.20344L8.81385 8.20348V10.3138L8.91017 10.3138Z" fill="white" style="fill:white;fill-opacity:1;"/>
<path d="M15.5173 10.314L18.0001 12.7967V10.6864L15.5173 8.20361V10.314Z" fill="white" style="fill:white;fill-opacity:1;"/>
<path d="M32.0611 9.08949C31.9545 8.74432 31.8075 8.43537 31.62 8.16264C31.4368 7.88565 31.2152 7.64915 30.9553 7.45312C30.6996 7.2571 30.4055 7.11008 30.0732 7.01207C29.7408 6.9098 29.3786 6.85866 28.9865 6.85866C28.2834 6.85866 27.657 7.03551 27.1072 7.3892C26.5575 7.7429 26.125 8.26278 25.8097 8.94886C25.4986 9.63068 25.343 10.4616 25.343 11.4418C25.343 12.4304 25.4986 13.2678 25.8097 13.9538C26.1207 14.6399 26.5533 15.1619 27.1072 15.5199C27.6612 15.8736 28.3047 16.0504 29.0376 16.0504C29.7024 16.0504 30.2777 15.9226 30.7635 15.6669C31.2536 15.4112 31.6307 15.049 31.8949 14.5803C32.1591 14.1072 32.2912 13.5533 32.2912 12.9183L32.8281 13.0014H29.2741V11.1477H34.5859V12.7202C34.5859 13.8409 34.3473 14.8104 33.87 15.6286C33.3928 16.4467 32.7365 17.0774 31.9013 17.5206C31.0661 17.9595 30.1072 18.179 29.0249 18.179C27.8189 18.179 26.7599 17.9084 25.848 17.3672C24.9403 16.8217 24.2308 16.0483 23.7195 15.0469C23.2124 14.0412 22.9588 12.848 22.9588 11.4673C22.9588 10.4105 23.108 9.46662 23.4062 8.63565C23.7088 7.80469 24.1307 7.09943 24.6719 6.51989C25.2131 5.93608 25.848 5.4929 26.5767 5.19034C27.3054 4.88352 28.098 4.73011 28.9545 4.73011C29.679 4.73011 30.3544 4.83665 30.9808 5.04972C31.6072 5.25852 32.1634 5.55682 32.6491 5.9446C33.1392 6.33239 33.5419 6.79261 33.8572 7.32528C34.1726 7.85795 34.3793 8.44602 34.4773 9.08949H32.0611ZM39.0907 4.90909V18H36.7768V4.90909H39.0907ZM45.8168 18.1918C44.8324 18.1918 43.9822 17.9872 43.2663 17.5781C42.5547 17.1648 42.0071 16.581 41.6236 15.8267C41.2401 15.0682 41.0483 14.1754 41.0483 13.1484C41.0483 12.1385 41.2401 11.2521 41.6236 10.4893C42.0114 9.7223 42.5526 9.12571 43.2472 8.69957C43.9418 8.26918 44.7578 8.05398 45.6953 8.05398C46.3004 8.05398 46.8714 8.15199 47.4084 8.34801C47.9496 8.53977 48.4268 8.83807 48.8402 9.2429C49.2578 9.64773 49.5859 10.1634 49.8246 10.7898C50.0632 11.4119 50.1825 12.1534 50.1825 13.0142V13.7237H42.1349V12.1641H47.9645C47.9602 11.7209 47.8643 11.3267 47.6768 10.9815C47.4893 10.6321 47.2273 10.3572 46.8906 10.157C46.5582 9.95668 46.1705 9.85653 45.7273 9.85653C45.2543 9.85653 44.8388 9.97159 44.4808 10.2017C44.1229 10.4276 43.8438 10.7259 43.6435 11.0966C43.4474 11.4631 43.3473 11.8658 43.343 12.3047V13.6662C43.343 14.2372 43.4474 14.7273 43.6562 15.1364C43.8651 15.5412 44.157 15.8523 44.532 16.0696C44.907 16.2827 45.3459 16.3892 45.8487 16.3892C46.1854 16.3892 46.4901 16.3423 46.7628 16.2486C47.0355 16.1506 47.272 16.0078 47.4723 15.8203C47.6726 15.6328 47.8239 15.4006 47.9261 15.1236L50.0866 15.3665C49.9503 15.9375 49.6903 16.4361 49.3068 16.8622C48.9276 17.2841 48.4418 17.6122 47.8494 17.8466C47.2571 18.0767 46.5795 18.1918 45.8168 18.1918ZM56.4867 18.1918C55.5023 18.1918 54.6522 17.9872 53.9363 17.5781C53.2246 17.1648 52.677 16.581 52.2935 15.8267C51.91 15.0682 51.7182 14.1754 51.7182 13.1484C51.7182 12.1385 51.91 11.2521 52.2935 10.4893C52.6813 9.7223 53.2225 9.12571 53.9171 8.69957C54.6117 8.26918 55.4277 8.05398 56.3652 8.05398C56.9703 8.05398 57.5414 8.15199 58.0783 8.34801C58.6195 8.53977 59.0968 8.83807 59.5101 9.2429C59.9277 9.64773 60.2559 10.1634 60.4945 10.7898C60.7331 11.4119 60.8525 12.1534 60.8525 13.0142V13.7237H52.8049V12.1641H58.6344C58.6301 11.7209 58.5343 11.3267 58.3468 10.9815C58.1593 10.6321 57.8972 10.3572 57.5605 10.157C57.2282 9.95668 56.8404 9.85653 56.3972 9.85653C55.9242 9.85653 55.5087 9.97159 55.1507 10.2017C54.7928 10.4276 54.5137 10.7259 54.3134 11.0966C54.1174 11.4631 54.0172 11.8658 54.013 12.3047V13.6662C54.013 14.2372 54.1174 14.7273 54.3262 15.1364C54.535 15.5412 54.8269 15.8523 55.2019 16.0696C55.5769 16.2827 56.0158 16.3892 56.5186 16.3892C56.8553 16.3892 57.16 16.3423 57.4327 16.2486C57.7054 16.1506 57.9419 16.0078 58.1422 15.8203C58.3425 15.6328 58.4938 15.4006 58.5961 15.1236L60.7566 15.3665C60.6202 15.9375 60.3603 16.4361 59.9767 16.8622C59.5975 17.2841 59.1117 17.6122 58.5194 17.8466C57.927 18.0767 57.2495 18.1918 56.4867 18.1918Z" fill="white" style="fill:white;fill-opacity:1;"/>
<path d="M64.2354 18.1406C63.8477 18.1406 63.5153 18.0043 63.2383 17.7315C62.9613 17.4588 62.8249 17.1264 62.8292 16.7344C62.8249 16.3509 62.9613 16.0227 63.2383 15.75C63.5153 15.4773 63.8477 15.3409 64.2354 15.3409C64.6104 15.3409 64.9364 15.4773 65.2134 15.75C65.4947 16.0227 65.6374 16.3509 65.6417 16.7344C65.6374 16.9943 65.5692 17.2308 65.4371 17.4439C65.3093 17.657 65.1388 17.8274 64.9258 17.9553C64.717 18.0788 64.4869 18.1406 64.2354 18.1406Z" fill="#52E897" style="fill:#52E897;fill:color(display-p3 0.3205 0.9097 0.5915);fill-opacity:1;"/>
</svg>
